<svg xmlns="http://www.w3.org/2000/svg" xmlns:xlink="http://www.w3.org/1999/xlink" width="747.448" height="678.932"
  viewBox="0 0 747.448 678.932">
  <defs>
    <style>
      .a {
        opacity: 0.9;
      }

      .ab,
      .b,
      .l {
        opacity: 0.1;
      }

      .c {
        fill: #ecb4b6;
      }

      .d {
        fill: #c17174;
      }

      .e {
        fill: #fff;
      }

      .e,
      .o {
        opacity: 0.25;
      }

      .f {
        opacity: 0.9;
      }

      .g {
        fill: #faa43b;
      }

      .h {
        fill: #3f3d56;
      }

      .i {
        fill: #cfcce0;
      }

      .j {
        fill: url(#a);
      }

      .k {
        fill: #ff6584;
      }

      .l,
      .n,
      .p,
      .u {
        fill: #f47c01;
      }

      .aa,
      .m {
        fill: none;
        stroke-miterlimit: 10;
      }

      .m {
        stroke: #535461;
        stroke-width: 2px;
      }

      .p {
        opacity: 0.4;
      }

      .q {
        fill: #f6f7f9;
      }

      .r {
        opacity: 0.8;
      }

      .ah,
      .s,
      .u {
        opacity: 0.2;
      }

      .t {
        fill: #2d3748;
      }

      .v {
        fill: #3acc6c;
      }

      .w {
        fill: #ffd037;
      }

      .x {
        fill: #65617d;
      }

      .y {
        fill: #9d9cb5;
      }

      .z {
        opacity: 0.5;
      }

      .aa {
        stroke: #f47c01;
      }

      .ac {
        fill: url(#b);
      }

      .ad {
        fill: #ff748e;
      }

      .ae {
        fill: #5e5a6b;
      }

      .af {
        fill: #464353;
      }

      .ag {
        fill: #9f9eff;
      }
    </style>
    <linearGradient id="a" x1="0.5" x2="0.5" y2="1" gradientUnits="objectBoundingBox">
      <stop offset="0" stop-color="#f7b658" />
      <stop offset="1" stop-color="#f47c01" />
    </linearGradient>
    <linearGradient id="b" x1="0.5" y1="1" x2="0.5" y2="-0.001" gradientUnits="objectBoundingBox">
      <stop offset="0" stop-color="gray" stop-opacity="0.251" />
      <stop offset="0.54" stop-color="gray" stop-opacity="0.122" />
      <stop offset="1" stop-color="gray" stop-opacity="0.102" />
    </linearGradient>
  </defs>
  <g class="a" transform="translate(-1037.552 -142.598)">
    <path class="b"
      d="M188.292,741.4a31.93,31.93,0,0,0-4.636,4.656c-7.4-3.1-12.173-9.435-13.986-12.211l2.862-3.32S193.835,737.389,188.292,741.4Z"
      transform="translate(890.972 -118.277)" />
    <path class="b" d="M187.78,725.247a52.324,52.324,0,0,0,10.923,0C205.162,724.626,200.3,728.557,187.78,725.247Z"
      transform="translate(890.139 -118.032)" />
    <path class="b" d="M184.69,729.62s8.586,4.9,11.906,2.452S193.4,734.438,184.69,729.62Z"
      transform="translate(890.281 -118.236)" />
    <path class="c"
      d="M187.64,741.4A31.932,31.932,0,0,0,183,746.051c-4.589,5.323-10.265,13.356-13.079,17.344-1.088,1.565-1.746,2.547-1.746,2.547l-6.144-.906s-6.621-10.141-6.535-10.379,5.247-11.133,5.247-11.133l1.994-2.337,6.287-7.346,2.862-3.32S193.183,737.389,187.64,741.4Z"
      transform="translate(904.022 -91.277)" />
    <path class="b"
      d="M169.924,763.928c-1.088,1.564-1.746,2.547-1.746,2.547l-6.144-.906s-6.621-10.141-6.535-10.38,5.247-11.152,5.247-11.152l1.994-2.337.649.124h1.565c-5.486,5.724.4,18.317.4,18.317S167.892,760.379,169.924,763.928Z"
      transform="translate(904.022 -91.792)" />
    <path class="d"
      d="M162.128,776.667s-4.093,8.834-6.306,13.909-1.393,8.748-1.393,8.748a8.592,8.592,0,0,1-.7,1.908,9.636,9.636,0,0,1-8.376,5.3h-.4c-7.46-.191-9.826-21.846-9.826-21.846s1.145-41.222,3.272-43.884a2.043,2.043,0,0,1,1.078-.572,22.9,22.9,0,0,1,6.573-.181c6.745.487,15.417,2.146,15.417,2.146h1.555c-5.485,5.724.4,18.326.4,18.326s2.623.238,4.665,3.921S162.128,776.667,162.128,776.667Z"
      transform="translate(904.96 -91.709)" />
    <ellipse class="e" cx="0.897" cy="0.897" rx="0.897" ry="0.897" transform="translate(1057.186 671.793)" />
    <ellipse class="e" cx="0.897" cy="0.897" rx="0.897" ry="0.897" transform="translate(1056.737 678.938)" />
    <path class="d"
      d="M153.1,801.042a9.635,9.635,0,0,1-8.376,5.3h-.391c-7.46-.191-9.836-21.847-9.836-21.847s1.145-41.222,3.272-43.884a2.041,2.041,0,0,1,1.078-.572,22.89,22.89,0,0,1,6.573-.181c-.124,7.413-.477,30.833,0,33.161S150.127,794.832,153.1,801.042Z"
      transform="translate(904.989 -91.7)" />
    <path class="e"
      d="M153.1,801.042a9.635,9.635,0,0,1-8.376,5.3h-.391c-7.46-.191-9.836-21.847-9.836-21.847s1.145-41.222,3.272-43.884a2.041,2.041,0,0,1,1.078-.572,22.89,22.89,0,0,1,6.573-.181c-.124,7.413-.477,30.833,0,33.161S150.127,794.832,153.1,801.042Z"
      transform="translate(904.989 -91.7)" />
    <path class="d"
      d="M144.326,806.383c-7.46-.191-9.836-21.847-9.836-21.847s1.145-41.222,3.272-43.884a2.04,2.04,0,0,1,1.078-.572c1.565,2.328,2.938,7.479,1.7,18.813-2.328,21.474.477,22.829.477,22.829S144.517,799.972,144.326,806.383Z"
      transform="translate(904.989 -91.717)" />
    <path class="b"
      d="M144.326,806.383c-7.46-.191-9.836-21.847-9.836-21.847s1.145-41.222,3.272-43.884a2.04,2.04,0,0,1,1.078-.572c1.565,2.328,2.938,7.479,1.7,18.813-2.328,21.474.477,22.829.477,22.829S144.517,799.972,144.326,806.383Z"
      transform="translate(904.989 -91.717)" />
    <g class="f" transform="translate(-2.601 -12)">
      <g transform="translate(-16 84)">
        <path class="g"
          d="M542.642,141.5c0,.832-.024,1.652-.1,2.46a33.758,33.758,0,1,1-63.52-18.219,31.05,31.05,0,0,1,2.484-3.991,33.748,33.748,0,0,1,61.011,17C542.605,139.66,542.642,140.576,542.642,141.5Z"
          transform="translate(1260.959 48.942)" />
        <path class="h"
          d="M537.142,131.684c0,.832-.024,1.652-.1,2.46L486.5,128.066l50.522.868C537.105,129.838,537.142,130.755,537.142,131.684Z"
          transform="translate(1266.459 58.763)" />
        <path class="h" d="M528.91,141.975l-46.76,5.631a33.833,33.833,0,0,1-3.569-4.763Z"
          transform="translate(1262.632 65.484)" />
        <path class="h" d="M516.048,116.774l-38.3,4.606a31.046,31.046,0,0,1,2.484-3.991Z"
          transform="translate(1262.232 53.307)" />
      </g>
      <g transform="translate(1084 154.598)">
        <path class="i" d="M.349.419,518.645,0,518.3,431.835,0,432.254Z"
          transform="translate(211.019 61.407) rotate(26.346)" />
        <path class="j" d="M.349.419,518.645,0,518.3,431.835,0,432.254Z"
          transform="translate(191.83 0) rotate(26.346)" />
        <path class="i"
          d="M389.681,290.849l-1.036-1.8L269.563,357.5V287.933l109.453-59.248-.989-1.829L269.563,285.568V217.824l62.352-58L330.5,158.3l-60.937,56.679V134.988h-2.08v80.081l-66.5-58.55-1.374,1.562,67.873,59.761v67.714L153,222.67l-1,1.822,115.484,63.437v69.545l-126.1-57.849-.867,1.892,126.968,58.246v79.876h2.08V359.9Z"
          transform="translate(58.353 24.773)" />
        <path class="h"
          d="M313.939,436.647h-.021l-.073-.27-1.092-4.233c.842-.177,1.685-.385,2.506-.6-12.553-3.775-24.97-2.787-35.193-.426h-.021c-2.6.593-5.044,1.289-7.322,2.018,1.321.229,2.642.447,3.983.624l-.631,2.621h-.087l-5.2,19.458,16.026-.063,32.042-.135Z"
          transform="translate(33.868 46.673)" />
        <path class="h" d="M642.688,539.662H112.427V131.5H642.688ZM115.2,537.1H639.915V134.063H115.2Z"
          transform="translate(-30.256 -64.042)" />
        <circle class="h" cx="18.72" cy="18.72" r="18.72" transform="translate(502.169 484.18)" />
        <circle class="k" cx="18.72" cy="18.72" r="18.72" transform="translate(329.548 52.102)" />
        <circle class="k" cx="18.72" cy="18.72" r="18.72" transform="translate(65.03 190.359)" />
      </g>
      <ellipse class="l" cx="271.451" cy="25.319" rx="271.451" ry="25.319" transform="translate(1222.5 653.847)" />
      <path class="m"
        d="M824.35,519.968s28-49.6,70.2-63.878a86.319,86.319,0,0,0,43.711-32.7,145.456,145.456,0,0,0,12.9-23.214"
        transform="translate(774.57 97.852)" />
      <path class="n"
        d="M1031.187,378.277c-4.808,4.661-27.187,9.483-27.187,9.483s5.5-22.217,10.3-26.885a12.125,12.125,0,0,1,16.889,17.4Z"
        transform="translate(721.025 110.587)" />
      <path class="n"
        d="M1012.823,434.209c-6.57,1.3-27.973-6.816-27.973-6.816s16.685-15.668,23.249-16.973a12.128,12.128,0,1,1,4.725,23.792Z"
        transform="translate(726.733 94.87)" />
      <path class="n"
        d="M950.208,496.437c-6.318-2.19-20.708-20-20.708-20s22.315-5.11,28.64-2.92a12.13,12.13,0,1,1-7.932,22.919Z"
        transform="translate(743.23 76.157)" />
      <path class="n"
        d="M888.689,531.9c-6.605-1.088-23.789-16.222-23.789-16.222s21.129-8.8,27.734-7.721a12.123,12.123,0,0,1-3.945,23.922Z"
        transform="translate(762.484 65.756)" />
      <path class="n"
        d="M958.26,404.977c0,6.7,12.116,26.12,12.116,26.12s12.13-19.416,12.137-26.113a12.13,12.13,0,0,0-24.252,0Z"
        transform="translate(734.658 99.949)" />
      <path class="n"
        d="M888.092,445.938c2,6.388,19.367,21.3,19.367,21.3s5.77-22.154,3.769-28.541a12.135,12.135,0,0,0-23.164,7.244Z"
        transform="translate(755.746 88.912)" />
      <path class="n"
        d="M826.014,497.585c.891,6.64,15.5,24.266,15.5,24.266s9.427-20.855,8.536-27.5a12.125,12.125,0,0,0-24.035,3.229Z"
        transform="translate(774.106 72.916)" />
      <path class="o"
        d="M1031.187,378.277c-4.808,4.661-27.187,9.483-27.187,9.483s5.5-22.217,10.3-26.885a12.125,12.125,0,0,1,16.889,17.4Z"
        transform="translate(721.025 110.587)" />
      <path class="o"
        d="M1012.823,434.209c-6.57,1.3-27.973-6.816-27.973-6.816s16.685-15.668,23.249-16.973a12.128,12.128,0,1,1,4.725,23.792Z"
        transform="translate(726.733 94.87)" />
      <path class="o"
        d="M950.208,496.437c-6.318-2.19-20.708-20-20.708-20s22.315-5.11,28.64-2.92a12.13,12.13,0,1,1-7.932,22.919Z"
        transform="translate(743.23 76.157)" />
      <path class="o"
        d="M888.689,531.9c-6.605-1.088-23.789-16.222-23.789-16.222s21.129-8.8,27.734-7.721a12.123,12.123,0,0,1-3.945,23.922Z"
        transform="translate(762.484 65.756)" />
      <path class="o"
        d="M958.26,404.977c0,6.7,12.116,26.12,12.116,26.12s12.13-19.416,12.137-26.113a12.13,12.13,0,0,0-24.252,0Z"
        transform="translate(734.658 99.949)" />
      <path class="o"
        d="M888.092,445.938c2,6.388,19.367,21.3,19.367,21.3s5.77-22.154,3.769-28.541a12.135,12.135,0,0,0-23.164,7.244Z"
        transform="translate(755.746 88.912)" />
      <path class="o"
        d="M826.014,497.585c.891,6.64,15.5,24.266,15.5,24.266s9.427-20.855,8.536-27.5a12.125,12.125,0,0,0-24.035,3.229Z"
        transform="translate(774.106 72.916)" />
      <path class="m"
        d="M826.65,501.11s5.5-56.69,38.249-86.838a86.34,86.34,0,0,0,26.716-47.606A145.3,145.3,0,0,0,894,340.23"
        transform="translate(773.884 115.72)" />
      <path class="n"
        d="M941.949,306.112c-2.506,6.212-21.009,19.655-21.009,19.655s-3.987-22.54-1.481-28.78a12.123,12.123,0,0,1,22.462,9.062Z"
        transform="translate(746.469 130.724)" />
      <path class="n"
        d="M946.541,363.3c-5.475,3.854-28.331,5.11-28.331,5.11s8.908-21.059,14.383-24.94A12.122,12.122,0,1,1,946.541,363.3Z"
        transform="translate(746.595 115.412)" />
      <path class="n"
        d="M912.182,445.663c-6.669.562-27.032-9.89-27.032-9.89s18.328-13.709,25-14.271a12.123,12.123,0,0,1,2.029,24.161Z"
        transform="translate(756.448 91.51)" />
      <path class="n"
        d="M871.037,502.867c-6.479,1.678-28.317-5.18-28.317-5.18s15.752-16.615,22.231-18.293a12.125,12.125,0,1,1,6.086,23.473Z"
        transform="translate(769.094 74.359)" />
      <path class="n"
        d="M883.437,360.863c2.717,6.121,21.662,18.953,21.662,18.953s3.222-22.659.512-28.78a12.127,12.127,0,0,0-22.175,9.827Z"
        transform="translate(757.27 114.651)" />
      <path class="n"
        d="M835.949,426.889c4.422,5.026,26.344,11.617,26.344,11.617s-3.706-22.589-8.122-27.622a12.137,12.137,0,0,0-18.251,16Z"
        transform="translate(772.019 95.894)" />
      <path class="n"
        d="M800.128,499.266c3.51,5.707,24,15.906,24,15.906s.168-22.891-3.334-28.6a12.126,12.126,0,0,0-20.666,12.691Z"
        transform="translate(782.324 73.826)" />
      <path class="p" d="M281.84,0V495.2H638.01V0Z" transform="translate(1000.998 258)" />
      <rect class="q" width="349.923" height="18.875" transform="translate(1285.962 262.345)" />
      <g class="r" transform="translate(1285.962 262.345)">
        <rect class="n" width="349.923" height="18.875" />
      </g>
      <rect class="q" width="349.923" height="467.633" transform="translate(1285.962 281.221)" />
      <circle class="q" cx="3.201" cy="3.201" r="3.201" transform="translate(1291.963 268.578)" />
      <circle class="q" cx="3.201" cy="3.201" r="3.201" transform="translate(1300.639 268.578)" />
      <circle class="q" cx="3.201" cy="3.201" r="3.201" transform="translate(1309.315 268.578)" />
      <g class="s" transform="translate(1348.414 310.05)">
        <rect class="t" width="225.01" height="8.809" />
      </g>
      <rect class="n" width="29.896" height="8.809" transform="translate(1543.529 310.05)" />
      <g class="s" transform="translate(1316.167 490.079)">
        <rect class="u" width="141.598" height="101.425" />
      </g>
      <g class="s" transform="translate(1316.167 358.512)">
        <rect class="u" width="141.598" height="101.425" />
      </g>
      <g class="s" transform="translate(1316.167 619.933)">
        <rect class="u" width="141.598" height="101.425" />
      </g>
      <g class="s" transform="translate(1464.082 490.079)">
        <rect class="u" width="141.598" height="101.425" />
      </g>
      <g class="s" transform="translate(1464.082 358.512)">
        <rect class="u" width="141.598" height="101.425" />
      </g>
      <g class="s" transform="translate(1464.082 619.933)">
        <rect class="u" width="141.598" height="101.425" />
      </g>
      <path class="v"
        d="M1017.943,692.73s5.012,6.549-2.309,16.433-13.337,18.251-10.915,24.4c0,0,11.042-18.363,20.034-18.616S1027.834,703.772,1017.943,692.73Z"
        transform="translate(720.973 10.658)" />
      <path class="b"
        d="M1018.062,692.73a8.064,8.064,0,0,1,1.025,2.05c8.774,10.3,13.442,19.921,5.012,20.167-7.848.225-17.275,14.264-19.528,17.808a7.768,7.768,0,0,0,.267.807s11.042-18.363,20.034-18.616S1027.952,703.772,1018.062,692.73Z"
        transform="translate(720.855 10.658)" />
      <path class="w"
        d="M1036.568,703.993c0,2.3-.26,4.17-.575,4.17s-.583-1.867-.583-4.17.323-1.221.646-1.221S1036.568,701.683,1036.568,703.993Z"
        transform="translate(711.663 7.742)" />
      <path class="w"
        d="M1039.934,707.869c-2.022,1.1-3.791,1.769-3.938,1.488s1.362-1.4,3.383-2.506,1.228-.295,1.4,0S1041.955,706.788,1039.934,707.869Z"
        transform="translate(711.492 6.617)" />
      <path class="v"
        d="M981.335,692.73s-5.012,6.549,2.309,16.433,13.337,18.251,10.915,24.4c0,0-11.042-18.363-20.034-18.616S971.43,703.772,981.335,692.73Z"
        transform="translate(731.132 10.658)" />
      <path class="b"
        d="M981.335,692.73a8.064,8.064,0,0,0-1.025,2.05c-8.775,10.3-13.442,19.921-5.012,20.167,7.855.225,17.275,14.264,19.528,17.808a6.382,6.382,0,0,1-.267.807s-11.042-18.363-20.034-18.616S971.43,703.772,981.335,692.73Z"
        transform="translate(731.132 10.658)" />
      <path class="w"
        d="M972.84,703.993c0,2.3.26,4.17.583,4.17s.576-1.867.576-4.17-.323-1.221-.639-1.221S972.84,701.683,972.84,703.993Z"
        transform="translate(730.312 7.742)" />
      <path class="w"
        d="M967.759,707.869c2.029,1.1,3.791,1.769,3.945,1.488s-1.369-1.4-3.39-2.506-1.228-.295-1.4,0S965.738,706.788,967.759,707.869Z"
        transform="translate(732.199 6.617)" />
      <ellipse class="l" cx="52.366" cy="8.037" rx="52.366" ry="8.037" transform="translate(1673.326 778.251)" />
      <path class="x"
        d="M1020.455,737.039l-.253,2.043-.351,2.892-.147,1.2-.351,2.892-.154,1.207-.351,2.885-4.008,32.851c-.358,2.934-5.145,5.215-10.929,5.215h-20.82c-5.784,0-10.529-2.281-10.922-5.215l-4.015-32.865-.351-2.885-.147-1.207-.358-2.892-.147-1.2-.351-2.892-.253-2.043c-.2-1.622,2.422-3.026,5.665-3.026H1014.8C1018.062,734,1020.659,735.4,1020.455,737.039Z"
        transform="translate(732.192 -1.642)" />
      <path class="y" d="M928.094,683.01l-.351,2.885h-52.7l-.351-2.885Z" transform="translate(824.3 54.43)" />
      <path class="y" d="M927.808,688.84l-.351,2.892h-51.7l-.358-2.892Z" transform="translate(824.088 52.692)" />
      <path class="y" d="M927.517,694.67l-.351,2.892H876.471l-.351-2.892Z" transform="translate(823.874 50.955)" />
      <path class="n"
        d="M683.8,227.905s-1.285-3.208,7.377-2.408,33.532,3.566,44.286,1.144,17.163-3.194,16.524,0-18.609,10.41-18.609,10.41l-23.27,2.408-17.163-2.731-9.217-5.454Z"
        transform="translate(816.481 150.206)" />
      <path class="b"
        d="M752.019,226.639c-.646,3.194-18.609,10.41-18.609,10.41l-23.27,2.408-17.163-2.724-9.21-5.454.063-3.369a1.4,1.4,0,0,1,.491-1.551c.793-.7,2.646-1.249,6.886-.856,8.669.8,33.532,3.559,44.286,1.137,8.76-1.972,14.643-2.85,16.145-1.4a1.4,1.4,0,0,1,.379,1.4Z"
        transform="translate(816.471 150.208)" />
      <path class="n"
        d="M760.416,278.419A100.443,100.443,0,0,0,719.127,296.7a7.658,7.658,0,0,0-3.292-3.91,11.561,11.561,0,0,0-3.341-1.4c-1.074-.274-2.106.379-3.053,1.32a17.291,17.291,0,0,0-2.717,4.022c-16.362-11.231-41.183-18.4-41.183-18.4v-2.246a12.393,12.393,0,0,1,.161-1.579c.084-.6.19-1.137.323-1.79,2.106-10.712,10.431-35.189,10.431-35.189h9.413l18.251,3.791,20.532-1.256,20.68-4.3,2.681-.562c4.471,3.51,9.547,28.078,11.54,38.537.253,1.327.449,2.422.6,3.229C760.325,277.879,760.416,278.419,760.416,278.419Z"
        transform="translate(821.903 147.024)" />
      <path class="n"
        d="M668.943,274.76c.541-10.284,8.711-32.571,10.094-36.27h-2.576s-8.817,25.972-10.607,36.108a.252.252,0,0,0,0,.077c-.049.274-.1.54-.133.793-.084.6-.14,1.137-.161,1.579v2.246s24.821,7.174,41.183,18.4a17.291,17.291,0,0,1,2.717-4.022C703.206,287.985,679.487,278.719,668.943,274.76Z"
        transform="translate(821.897 146.044)" />
      <path class="n"
        d="M781.51,276.926c-.063-.358-.14-.772-.224-1.228-.105-.59-.232-1.257-.372-2h0c-1.994-10.473-7.069-35.048-11.54-38.537l-2.681.562c1.628,4.373,12.123,32.929,11.231,38.5-17.549,3.51-35.336,14.916-40.713,18.56a7.658,7.658,0,0,1,3.292,3.91,100.442,100.442,0,0,1,41.289-18.286S781.686,277.867,781.51,276.926Z"
        transform="translate(800.542 147.036)" />
      <path class="b"
        d="M669.863,273.843c.533-10.284,8.711-32.571,10.094-36.263h-2.583s-8.816,25.972-10.606,36.1v.077q-.077.421-.126.8c-.084.6-.14,1.137-.161,1.579v2.246s24.814,7.167,41.183,18.4a16.992,16.992,0,0,1,2.71-4.022C704.119,287.089,680.407,277.8,669.863,273.843Z"
        transform="translate(821.623 146.315)" />
      <path class="n"
        d="M668.943,274.76c.541-10.284,8.711-32.571,10.094-36.27h-2.576s-8.817,25.972-10.607,36.108a.252.252,0,0,0,0,.077c-.049.274-.1.54-.133.793-.084.6-.14,1.137-.161,1.579v2.246s24.821,7.174,41.183,18.4a17.291,17.291,0,0,1,2.717-4.022C703.206,287.985,679.487,278.719,668.943,274.76Z"
        transform="translate(821.897 146.044)" />
      <path class="b"
        d="M780.6,276.006l-.225-1.228c-.112-.59-.232-1.249-.372-2h0c-1.987-10.466-7.069-35.041-11.54-38.537l-2.674.569c1.629,4.373,12.123,32.929,11.231,38.5-17.549,3.51-35.343,14.916-40.713,18.553a7.672,7.672,0,0,1,3.292,3.917,100.338,100.338,0,0,1,41.282-18.293S780.779,276.961,780.6,276.006Z"
        transform="translate(800.81 147.31)" />
      <path class="n"
        d="M781.51,276.926c-.063-.358-.14-.772-.224-1.228-.105-.59-.232-1.257-.372-2h0c-1.994-10.473-7.069-35.048-11.54-38.537l-2.681.562c1.628,4.373,12.123,32.929,11.231,38.5-17.549,3.51-35.336,14.916-40.713,18.56a7.658,7.658,0,0,1,3.292,3.91,100.442,100.442,0,0,1,41.289-18.286S781.686,277.867,781.51,276.926Z"
        transform="translate(800.542 147.036)" />
      <path class="b" d="M678.611,254.549S694.9,264.8,698.7,249.79l3.622.969s1.193,16.629-24.793,7.139Z"
        transform="translate(818.329 142.676)" />
      <path class="n" d="M678.611,252.719s16.285,10.248,20.09-4.759l3.622.969s1.193,16.629-24.793,7.139Z"
        transform="translate(818.329 143.221)" />
      <path class="b" d="M752.07,250.2s2.106,12.263,24.421,6.318L775.7,254.2s-15.239,6.318-20.764-4.654Z"
        transform="translate(796.113 142.747)" />
      <path class="n" d="M752.07,248.373s2.106,12.263,24.421,6.318l-.786-2.316s-15.239,6.318-20.764-4.654Z"
        transform="translate(796.113 143.293)" />
      <path class="b" d="M730.91,249.195v25.593h3.959s5.475-1.973,5.349-13.477-.962-14.6-.962-14.6Z"
        transform="translate(802.419 143.594)" />
      <path class="n" d="M730,248.285v25.593h3.959s5.475-1.973,5.349-13.477-.969-14.6-.969-14.6Z"
        transform="translate(802.691 143.865)" />
      <path class="b"
        d="M752.638,234.368c-1.614,3-16.271,7.939-18.861,8.788l-.393.126s-.927.239-2.478.562c-4.717.983-15.232,2.808-23.164,1.207-1.151-.225-2.345-.47-3.559-.7l-2.808-.611c-9.125-2.029-18.567-4.682-20.244-7.019,0,0,.456-7.63,1.994-7.427s18.7,7.427,18.7,7.427l.246.035c.442.056,1.446.182,2.857.344,5.573.611,17.317,1.579,23.635-.112.3-.084.583-.168.856-.267.477-.161.976-.33,1.488-.519,8.129-2.878,20.3-8.03,20.3-8.03S754.421,231.062,752.638,234.368Z"
        transform="translate(817.256 149.12)" />
      <path class="b"
        d="M752.019,226.956c-.646,3.194-18.609,10.41-18.609,10.41l-23.27,2.408-17.163-2.724-9.21-5.454.063-3.369a1.4,1.4,0,0,1,.491-1.551c3.054.927,18.251,7.321,18.251,7.321l.246.035c.442.056,1.446.183,2.857.344,5.573.611,17.317,1.579,23.635-.112.3-.084.583-.168.856-.267.477-.154.976-.33,1.488-.519,7.349-2.6,18.012-7.069,19.985-7.9A1.4,1.4,0,0,1,752.019,226.956Z"
        transform="translate(816.471 149.892)" />
      <path class="n"
        d="M752.638,232.525c-1.614,3-16.271,7.932-18.861,8.781l-.393.133s-.927.232-2.478.555c-4.717.983-15.232,2.808-23.164,1.207-1.151-.225-2.345-.47-3.559-.7l-2.808-.611c-9.125-2.029-18.567-4.682-20.244-7.02,0,0,.456-7.63,1.994-7.42s18.7,7.42,18.7,7.42l.246.035c.442.056,1.446.19,2.857.344,5.573.611,17.317,1.579,23.635-.112.3-.084.583-.168.856-.267.477-.154.976-.33,1.488-.519,8.129-2.878,20.3-8.03,20.3-8.03S754.421,229.233,752.638,232.525Z"
        transform="translate(817.256 149.671)" />
      <circle class="b" cx="2.569" cy="2.569" r="2.569" transform="translate(1533.54 387.735)" />
      <circle class="n" cx="2.569" cy="2.569" r="2.569" transform="translate(1533.54 387.089)" />
      <path class="b" d="M714.41,238.854l-.7,7.244-2.808-.611.7-6.977C712,238.58,713.006,238.714,714.41,238.854Z"
        transform="translate(808.383 146.038)" />
      <path class="n" d="M713.51,238.854l-.7,7.244L710,245.487l.7-6.977C711.088,238.58,712.106,238.714,713.51,238.854Z"
        transform="translate(808.651 146.038)" />
      <path class="b"
        d="M753,244.71l-.393.133s-.92.232-2.478.555l-2.394-6.872c.3-.084.59-.168.863-.267.477-.154.976-.33,1.488-.519Z"
        transform="translate(797.403 146.267)" />
      <path class="n"
        d="M753.925,244.71l-.393.133s-.927.232-2.478.555l-2.394-6.872c.3-.084.583-.168.856-.267.477-.154.976-.33,1.488-.519Z"
        transform="translate(797.129 146.267)" />
      <g class="z" transform="translate(1342.641 371.035)">
        <path class="n"
          d="M497.87,220.481a18.531,18.531,0,0,1,9.329,2.59s8.55,1.039,13.211,0,7.02-4.661,7.9-3.629.905,10.754.905,10.754L525.2,240.95l-9.069,6.732-14.376-4.142L497,231.375Z"
          transform="translate(-470.505 -219.259)" />
        <path class="b"
          d="M529.22,230.219,525.2,240.973l-9.069,6.732-14.376-4.141L497,231.385l.906-10.88h.211a19.037,19.037,0,0,1,9.125,2.6s8.55,1.039,13.211,0c4.429-.983,6.76-4.31,7.721-3.748h0a.435.435,0,0,1,.147.112C529.22,220.49,529.22,230.219,529.22,230.219Z"
          transform="translate(-470.505 -219.268)" />
        <path class="b"
          d="M529.22,230.249,525.2,241l-9.069,6.732-14.376-4.141L497,231.414l.906-10.88h.211c.8,3.433,4.212,14.271,15.078,15.036,11.175.779,14.348-12.516,15.008-16.18a.436.436,0,0,1,.147.112C529.22,220.52,529.22,230.249,529.22,230.249Z"
          transform="translate(-470.505 -219.298)" />
        <path class="n"
          d="M486.621,220.559s2.331,15.155,15.289,16.061,15.155-17.1,15.155-17.1,18.784,6.156,23.164,17.135,7.644,19.788,7.644,19.788-1.4,2.457-2.983,2.717-12.305,7.644-12.305,7.644-.126,20.988,1.039,22.28.779,6.865-2.724,6.605-27.72-5.7-48.435-1.165c0,0-8.676,3.11-8.423-1.944s.646-24.87.646-24.87-13.084-5.7-13.857-5.7-2.724-1.025-.653-4.4,4.668-14.9,4.668-14.9S470.041,226.174,486.621,220.559Z"
          transform="translate(-459.255 -219.337)" />
        <path class="b" d="M555.63,259.77s3.889,2.85,2.983,5.054S555.63,259.77,555.63,259.77Z"
          transform="translate(-487.979 -231.333)" />
        <path class="b" d="M563.635,263.67a7.019,7.019,0,0,0,0,3.868" transform="translate(-490.284 -232.496)" />
        <path class="b" d="M567,273.8s.519,3.51-1.032,3.882" transform="translate(-491.061 -235.515)" />
        <path class="b" d="M489.9,258.48s-7.251,6.318-4.794,8.809" transform="translate(-466.808 -230.949)" />
        <path class="b" d="M485.689,280.26s-.119,6.605,1.881,7.125" transform="translate(-467.133 -237.44)" />
        <path class="b" d="M515.4,310.435s4.914-3.362,6.219-3.236" transform="translate(-475.989 -245.468)" />
        <path class="b" d="M522.4,315.3s5.321-3.762,6.746-3.51" transform="translate(-478.075 -246.836)" />
      </g>
      <g class="z" transform="translate(1489.099 499.766)">
        <path class="n" d="M687,402.65s42.384,2.008,63.456.772l-.463,5.559L712.705,413.9l-11.035-3.4Z"
          transform="translate(-673.593 -402.65)" />
        <path class="b"
          d="M750.484,403.422l-.463,5.559L712.741,413.9,701.7,410.5,687,402.65s.87.049,2.422.112h0c9.2.4,42.307,1.692,60.487.7Z"
          transform="translate(-673.593 -402.65)" />
        <path class="n"
          d="M759.463,482.476c-8.185,4.914-36.593.154-36.593.154l-7.876-28.078-8.8,28.562c-12.5,4.478-38.292-2.008-38.292-2.008l10.038-61.772,1.734-8.515,1.635-8.171,15.906,4.787s4.78,3.243,24.7,2.316,22.849-6.318,22.849-6.318c.877.253,1.713,3.348,2.555,7.2,1.221,5.616,2.464,12.818,3.931,15.2C753.749,429.83,759.463,482.476,759.463,482.476Z"
          transform="translate(-667.9 -402.65)" />
        <path class="b"
          d="M752.345,411.5c-17.759,9.75-33.048,9.483-33.048,9.483-3.784.463-34.627-9.287-34.627-9.287l1.636-8.164,15.906,4.787s4.78,3.243,24.7,2.316,22.849-6.318,22.849-6.318C750.667,404.562,751.5,407.65,752.345,411.5Z"
          transform="translate(-672.898 -402.912)" />
        <path class="b"
          d="M750.484,403.422l-.463,5.559L712.741,413.9,701.7,410.5,687,402.65s.87.049,2.422.112h0L702.9,406.82s4.78,3.243,24.7,2.316c15.646-.7,20.813-4.212,22.308-5.679Z"
          transform="translate(-673.593 -402.65)" />
        <path class="n"
          d="M752.345,410.617c-17.759,9.75-33.048,9.483-33.048,9.483-3.784.463-34.627-9.287-34.627-9.287l1.636-8.164,15.906,4.787s4.78,3.243,24.7,2.316,22.849-6.318,22.849-6.318C750.667,403.675,751.5,406.77,752.345,410.617Z"
          transform="translate(-672.898 -402.65)" />
        <circle class="b" cx="1.622" cy="1.622" r="1.622" transform="translate(47.789 12.733)" />
        <circle class="aa" cx="1.622" cy="1.622" r="1.622" transform="translate(47.789 12.116)" />
        <path class="b" d="M679.23,463.58s2.857,8.494,4.865,8.339S679.23,463.58,679.23,463.58Z"
          transform="translate(-671.277 -420.81)" />
        <path class="b" d="M676.59,475.46s1.776,5.1,3.629,5.946" transform="translate(-670.49 -424.351)" />
        <path class="b" d="M676.59,483.05s2.808,3.552,4.471,4.4" transform="translate(-670.49 -426.613)" />
        <path class="b" d="M784,437.3s2.625,3.938,0,4.787" transform="translate(-702.503 -412.977)" />
        <path class="b" d="M784.961,446.041c-3.046-3.615-1.165,4.914-1.165,4.914S785.741,446.967,784.961,446.041Z"
          transform="translate(-702.272 -415.316)" />
        <path class="b" d="M786.264,452.69s-4.633,6.872-3.706,7.644" transform="translate(-702.037 -417.564)" />
        <path class="b"
          d="M695.513,433.528A33.8,33.8,0,0,1,683.58,430.8l.253-.569c.112.056,11.449,4.977,17.584,1.285,2.316-1.4,3.615-3.875,3.868-7.371l.618.049c-.267,3.706-1.671,6.318-4.17,7.848a11.933,11.933,0,0,1-6.219,1.481Z"
          transform="translate(-672.573 -409.058)" />
        <path class="n"
          d="M695.513,432.648a33.8,33.8,0,0,1-11.933-2.724l.253-.562c.112.049,11.449,4.97,17.584,1.278,2.316-1.4,3.615-3.875,3.868-7.37l.618.049c-.267,3.706-1.671,6.318-4.17,7.848a11.934,11.934,0,0,1-6.219,1.481Z"
          transform="translate(-672.573 -408.796)" />
        <path class="b"
          d="M762.926,434.406a9.61,9.61,0,0,1-4.212-.906c-4.6-2.218-5.349-7.651-5.384-7.883l.618-.077c0,.056.737,5.342,5.04,7.406,3.833,1.846,9.273.7,16.145-3.51l.316.526C770.556,432.925,766.365,434.406,762.926,434.406Z"
          transform="translate(-693.362 -409.472)" />
        <path class="n"
          d="M762.926,433.526a9.61,9.61,0,0,1-4.212-.906c-4.6-2.218-5.349-7.651-5.384-7.883l.618-.077c0,.056.737,5.342,5.04,7.406,3.833,1.846,9.273.7,16.145-3.51l.316.526C770.556,432.045,766.365,433.526,762.926,433.526Z"
          transform="translate(-693.362 -409.21)" />
      </g>
      <path class="n"
        d="M503.34,404s7.967,11.126,13.379,10.045,5.945-2.267,10.754-10.045l3.945,9.076-4.647,11.231-5.5,7.125L509.6,429.6l-3.776-12.747Z"
        transform="translate(870.246 96.714)" />
      <path class="b"
        d="M531.418,413.06l-4.647,11.231-5.5,7.125L509.6,429.584l-3.776-12.747-2.485-12.846s.7.969,1.8,2.3c2.674,3.194,7.764,8.5,11.582,7.721,5.335-1.067,5.932-2.239,10.564-9.729l.19-.316Z"
        transform="translate(870.246 96.723)" />
      <path class="b"
        d="M531.418,413.069,526.771,424.3l-5.5,7.125L509.6,429.593l-3.776-12.747L503.34,404s.7.969,1.8,2.3c1.741,5.616,5.482,14.622,11.582,14.544,6.886-.077,9.666-11.484,10.564-16.531l.19-.316Z"
        transform="translate(870.246 96.714)" />
      <path class="n"
        d="M494.983,402.924s-2.7-.323-1.3,3.025,3.994,14.362,2.7,16.629-.646,8.423-6.261,9.617l1.614,6.367s.323,14.039-.323,16.1-.758,13.386-.54,14.573.112,8.964-.751,9.294-1.4,4.1,1.4,4.745,14.79.976,16.952,1.622,17.493,0,17.493,0,6.479-.863,8.1-1.4,1.944-1.832,1.4-4.317-3.025-20.518-2.485-22.785.653-24.407.653-24.407-4.212-1.4-4.212-5.51-1.622-15.12,1.727-22.027c0,0-2.7-1.853-3.131-1.523s-4.506-.856-4.506-.856-2.106,18.791-10.915,18.9-12.733-18.9-12.733-18.9S499.952,400.334,494.983,402.924Z"
        transform="translate(874.392 97.46)" />
      <path class="b" d="M515.49,489.38s1.818,4.429,4.85,5.075S515.49,489.38,515.49,489.38Z"
        transform="translate(866.625 71.266)" />
      <path class="b" d="M511.49,494.3s5.868,4.752,5.616,5.728" transform="translate(867.817 69.8)" />
      <path class="b" d="M494.72,454.3s4.647,3.131,4.647,5.4" transform="translate(872.815 81.722)" />
      <path class="b" d="M498.265,465.963s-1.292-4.535-2.155-5.5" transform="translate(872.401 79.886)" />
      <path class="b" d="M496.11,470.76a40.436,40.436,0,0,1,2.155,4.97" transform="translate(872.401 76.816)" />
      <path class="b" d="M547.446,459.53s-6.044,1.839-5.51,4.106" transform="translate(858.753 80.163)" />
      <path class="b" d="M541.91,485.572s7.918-9.182,5.538-8.964S541.91,485.572,541.91,485.572Z"
        transform="translate(858.75 75.074)" />
      <g class="ab" transform="translate(1363.811 498.957)">
        <path
          d="M546.245,433.24c0-1.9-.344-5.265-.386-9.02-.042,4.31.386,8.3.386,10.424,0,4.015,4.022,5.44,4.212,5.5v-1.4S546.245,437.346,546.245,433.24Z"
          transform="translate(-506.236 -408.269)" />
        <path
          d="M553.915,504.678a10.924,10.924,0,0,1,.19,1.116,7.019,7.019,0,0,0-.19-2.52c-.463-2.106-2.345-15.625-2.541-20.9C551.164,485.978,553.424,502.319,553.915,504.678Z"
          transform="translate(-507.877 -425.601)" />
        <path
          d="M491.349,485.682c0-3.854.218-9.167.639-10.529.344-1.1.414-5.573.407-9.532a48.5,48.5,0,0,1-.407,8.129C491.511,475.279,491.328,481.863,491.349,485.682Z"
          transform="translate(-489.99 -420.609)" />
        <path
          d="M496.636,404.328c4.963-2.59,4.858-.863,4.858-.863s3.889,19.009,12.733,18.9,10.95-18.9,10.95-18.9,4.106,1.186,4.535.856,1.867.7,2.66,1.207c.147-.372.3-.737.477-1.088,0,0-2.7-1.853-3.138-1.523s-4.535-.856-4.535-.856-2.106,18.791-10.915,18.9-12.733-18.9-12.733-18.9.105-1.727-4.858.863c0,0-2.2-.253-1.586,2.169C495.435,404.187,496.636,404.328,496.636,404.328Z"
          transform="translate(-491.072 -401.497)" />
        <path
          d="M490.113,509.951c.7-.26.891-5.068.849-7.721-.035,2.667-.281,6.1-.849,6.318s-.842,1.4-.625,2.548C489.6,510.492,489.825,510.05,490.113,509.951Z"
          transform="translate(-489.414 -431.52)" />
        <path
          d="M496.678,432.305a6.037,6.037,0,0,0,.33-2.885,3.7,3.7,0,0,1-.33,1.481c-1.3,2.267-.653,8.423-6.268,9.617l.337,1.32C496,440.476,495.408,434.53,496.678,432.305Z"
          transform="translate(-489.711 -409.819)" />
      </g>
      <path class="n" d="M531.217,589.846c-2.653,4.829-29.587,0-29.587,0l.07-.484.534-3.741h28.38l.541,3.734Z"
        transform="translate(870.756 42.582)" />
      <path class="b" d="M531.217,591.347c-2.653,4.829-29.587,0-29.587,0l.07-.484c1.292,0,20.778-.463,29.482,0Z"
        transform="translate(870.756 41.081)" />
      <path class="n"
        d="M491.91,591.551h0s-4.829,1.207-12.319,21.494-10.143,46.5-10.143,46.5-4.212,7.132,13.765,7.609c0,0-1.446,4.71,8.7,3.987s8.683-.716,8.683-.716,6.521-4.106,9.42-3.383,4.71.969,7.848,3.622,13.169,1.572,13.288-.477a18.965,18.965,0,0,0,0-3.025s15.338.969,12.439-10.143-5.314-29.349-5.314-29.349-7.848-35.624-16.791-36.108S491.91,591.551,491.91,591.551Z"
        transform="translate(880.475 40.877)" />
      <rect class="b" width="61.856" height="0.484"
        transform="matrix(0.092, -0.996, 0.996, 0.092, 1363.472, 708.045)" />
      <rect class="b" width="64.853" height="0.484" transform="translate(1380.81 711.257) rotate(-89.78)" />
      <path class="aa" d="M535.18,611.6" transform="translate(860.756 34.839)" />
      <rect class="b" width="0.484" height="65.141" transform="translate(1395.734 646.407) rotate(-2.13)" />
      <path class="b" d="M554.127,672.669c-.842-37.1-7.16-62.495-7.237-62.719l.47-.119c.063.253,6.416,25.7,7.251,62.86Z"
        transform="translate(857.266 35.366)" />
      <path class="b" d="M502.671,596.8s-.842.484,0,2.808" transform="translate(870.557 39.25)" />
      <path class="b" d="M505.847,596.8s-2.3,1.446,0,3.868" transform="translate(869.803 39.25)" />
      <path class="b" d="M536.9,596.8s3.138,3.018,2.415,3.868" transform="translate(860.244 39.25)" />
      <path class="b" d="M540.5,595.77s.491,3.622,2.3,4.591" transform="translate(859.171 39.557)" />
      <g class="z" transform="translate(1507.171 627.706)">
        <path class="n"
          d="M722.828,586.747s11.849-4.717,16.973,1.039-3.51,12.761-3.51,12.761l-3.622,7.23-8.522-.934-2.008-10Z"
          transform="translate(-702.137 -584.918)" />
        <path class="b"
          d="M736.291,600.508l-3.622,7.23-8.522-.906-2.008-9.989.7-10.1.19-.07c1.5-.555,11.645-4.092,16.5.779a3.736,3.736,0,0,1,.288.295C744.925,593.475,736.291,600.508,736.291,600.508Z"
          transform="translate(-702.137 -584.913)" />
        <path class="b"
          d="M736.291,601.255l-3.622,7.23-8.522-.906-2.008-9.989.7-10.1.19-.07c1.467,8.037,5.384,11.428,6.044,11.933l.1.07,2.408-.2c4.682-2.583,7.153-8.725,7.946-11.049a3.747,3.747,0,0,1,.288.295C744.925,594.222,736.291,601.255,736.291,601.255Z"
          transform="translate(-702.137 -585.661)" />
        <path class="n"
          d="M748.492,628.846s-2.611,33.258-1.9,37.274-1.509,4.317-1.509,4.317-9.448,2.106-11.231.7a10.745,10.745,0,0,0-4.822-1.678s-7.02,1.607-10.15.407-8.339-.7-8.339-.7-4.015,2.415-5.124,1.909-2.513-.3-5.728-1.2-5.026-1.713-3.32-7.237.211-23.01.105-25.123a107.1,107.1,0,0,0-2.513-13.337c-1.411-6.107,2.408-4.822,2.408-4.822,8.95-4.619,5.23-13.667,3.826-17.682s.8-4.212,1.9-4.212,5.328-3.615,5.328-3.615l1.713-1.537,5.223-4.689c1.3,8.781,5.51,12.467,6.212,13.014l.1.077,2.408-.2c5.826-3.208,8.234-11.933,8.234-11.933a15.224,15.224,0,0,0,4.015,3.819,68.783,68.783,0,0,0,7.139,4.422c4.212,2.513,1.109,5.026,1.109,5.026-5.124,17.479,2.106,18.251,2.106,18.251C751,620.878,748.492,628.846,748.492,628.846Z"
          transform="translate(-693.644 -585.72)" />
        <path class="b" d="M714.889,601.69s-1.509.807-1.509,1.706" transform="translate(-699.526 -589.914)" />
        <path class="b" d="M716.1,604.12s-2.008,2.106-1.657,2.717" transform="translate(-699.831 -590.638)" />
        <path class="b" d="M716.375,608s-1.509,1.607-.906,2.513" transform="translate(-700.107 -591.794)" />
        <path class="b"
          d="M726.282,602.324l-6.318,6.1a27.737,27.737,0,0,0-5.124-14.5l5.223-4.689C721.34,598.092,725.587,601.777,726.282,602.324Z"
          transform="translate(-699.962 -586.203)" />
        <path class="n"
          d="M727.145,600.6l-6.318,6.107a27.772,27.772,0,0,0-5.117-14.5l5.223-4.689C722.231,596.372,726.443,600.057,727.145,600.6Z"
          transform="translate(-700.221 -585.69)" />
        <path class="b"
          d="M748.679,594.5c-2.527,3.945-7.223,14.362-7.223,14.362l-5.026-6.226c5.826-3.215,8.234-11.933,8.234-11.933A15.774,15.774,0,0,0,748.679,594.5Z"
          transform="translate(-706.397 -586.638)" />
        <path class="n"
          d="M747.805,592.784c-2.52,3.952-7.223,14.369-7.223,14.369l-5.012-6.219C741.4,597.725,743.8,589,743.8,589A15.9,15.9,0,0,0,747.805,592.784Z"
          transform="translate(-706.14 -586.131)" />
        <path class="b" d="M747.022,686.14s-1.074,9.125-1.692,9.645" transform="translate(-709.049 -615.084)" />
        <path class="b" d="M760.33,688.43s1.207,6.528.7,8.037" transform="translate(-713.52 -615.766)" />
        <path class="b" d="M723.482,689s-1.1,6.128,0,6.83" transform="translate(-702.391 -615.936)" />
        <path class="b" d="M714.089,687.71s-.913,7.237-.7,8.543" transform="translate(-699.519 -615.552)" />
        <path class="b" d="M761.367,637.47s-2.808,2.211-2.611,2.808" transform="translate(-713.048 -600.578)" />
        <path class="b" d="M763.879,639.48S758.5,644,761.19,643.5,763.879,639.48,763.879,639.48Z"
          transform="translate(-713.552 -601.177)" />
      </g>
      <path class="ac"
        d="M331.407,450.624l.048-.067-.086-.067h0l-.515-.343.1.076a1.708,1.708,0,0,0-2.251.5l-.21.3h0l-11.591,16.676-2.022,2.967c-6.115-1.841-16.046,5.905-21.074,10.351-.315.277-.611.534-.878.782-.4-.9-.639-1.469-.639-1.469-.248,2.728-9.883,6.821-12.135,8.309a8.109,8.109,0,0,1-3.358,1.126c.324-10.37-7.7-21.284-7.7-21.284l-19.6-24.947a22.018,22.018,0,0,1,2-13.232c.162-.324.324-.649.506-.954h.1a21.7,21.7,0,0,0-1.231,6.516c.048,1.689,1.612,9.874,3.816,9.54a1.2,1.2,0,0,0,1.126-.534c1.755-2.042,1.908-5.514,1.822-8.729a17.883,17.883,0,0,1-.315,2.814c.143-2.671-.162-5.5-.162-7.508,0-.8,0-1.593.057-2.395h.238v0h.248a26.342,26.342,0,0,0,11.973-5.552,6.42,6.42,0,0,0,4.5-2.108,4.379,4.379,0,0,1-.849,4.083,7.123,7.123,0,0,0,5.858-4.56,15.913,15.913,0,0,0,.744-7.632,53.019,53.019,0,0,1-.563-7.756,28.537,28.537,0,0,0,.229-4.226,8.156,8.156,0,0,0-.229-1.278h.076a1.908,1.908,0,0,0,1.364-.534c1.088-.84,1.441-2.48,1.717-3.74a31.847,31.847,0,0,0,1.011-8.882c-.057.906-.172,1.822-.305,2.728.238-3.434-.239-6.773-2.509-9.263a18.288,18.288,0,0,0-5.848-3.711,4.285,4.285,0,0,1-1.908-1.364,5.524,5.524,0,0,1-.591-2.366c-.735-5.018-5.457-8.51-10.16-10.494-6.048-2.633-13.356-3.759-19.128-.63-2.862,1.517-5.056,3.892-7.632,5.829-3.224,2.452-6.945,4.169-10.389,6.306s-6.678,4.846-8.367,8.529c-2.528,5.724-.63,12.211-.315,18.422.506,9.779-3.52,20.034-11.5,25.758a10.313,10.313,0,0,0-2.528,2.185,2.728,2.728,0,0,0-.21,3.12c.41.534,1.059.84,1.507,1.345.906,1.03.725,2.6.372,3.921a24.585,24.585,0,0,1-6.678,11.314c.143,1.011,1.393,1.412,2.414,1.565a55.579,55.579,0,0,0,8.157.591H209.1c-.124.315-.258.649-.391,1-1.479,3.892-3.4,9.883-2.757,13.547.954,5.781,4.007,32.217,2.5,36.853S210.87,540.3,210.87,540.3s.525,2.595,1.431,6.468c-2.356,5.552-5.047,11.715-6.392,14.186-2.709,4.951-1.374,30.232,7.966,41.47,0,0,3.816,5.457,2.862,7.432s.172,5.457.172,5.457l1.479,32.713a84.779,84.779,0,0,1-.687,10c-3.988,4.932-10.131,12.125-13.022,13.3-4.474,1.822-37.845,42.3-37.845,42.3s.267.487.792,1.278l-.954,1.088-6.4,7.422-.506.582c-1.2-.229-9.206-1.679-15.55-2.137h-.63v-.114a23.736,23.736,0,0,0-6.678.181,2.146,2.146,0,0,0-1.107.572c-2.166,2.652-3.329,44.285-3.329,44.285s2.309,20.845,9.54,22.009a3.814,3.814,0,0,0,1.145.21h.315a9.963,9.963,0,0,0,8.586-5.352,8.291,8.291,0,0,0,.715-1.908s-.84-3.711,1.412-8.834,6.459-14.138,6.459-14.138,7.632-8.023,6.268-11.915c.21-.315.458-.658.725-1.049,2.862-4.083,8.662-12.144,13.356-17.525a13.89,13.89,0,0,1,.954-1.03,23.439,23.439,0,0,0,5.323,1.536s7.174-2.8,9.836-9.082c1.135-2.671,5.59-7.4,10.332-11.954l-.153,1.212-.162,39.82a28.47,28.47,0,0,0,4.9,2.7v.954a127.832,127.832,0,0,1-1.03,16.972l-.143.887c-.591-.42-1.107-.563-1.431-.239-1.469,1.488-2.385,10.99-2.471,15.369v.439c-.238,4.369-2.728,10.723,4.77,11.047,5.61.238,29.793.6,42.73.792a28.763,28.763,0,0,0,19.08-6.764c4.112-3.52,6.6-7.708,1-10.79-.343-.191-.706-.372-1.107-.553l-12.4-1.908-21.188-10.818s-.124-6.544-2.671-5.457a7.16,7.16,0,0,0-2.146.849c-.124-.239-.258-.5-.382-.763a24.375,24.375,0,0,1-2.614-11.028,7.8,7.8,0,0,1,.048-1.049,21.088,21.088,0,0,0,1.755-1.8s-.162-14.873,1.507-17.678,6.84-31.234,6.84-31.234.162-5.285,3.5-8.424,2.166-12.23,2.166-12.23,4.675-2.48,6.172-10.57,6.344-25.758,6.344-25.758,10.007-26.111,9.349-42.625.954-25.119.954-25.119l2.08-38.389V535c.83.63,1.393,1.145,1.393,1.145v-.42c.305.258.477.42.477.42s1.068-17.42.706-24.327c5.838-1.984,14.73-5.247,15.264-6.907.744-2.471,10.761-10.284,10.761-10.284a1.66,1.66,0,0,1-.611-.229c.315-.143.639-.315.954-.5,6.564-3.511,18.756-13.776,16.7-20.034L331.741,454.7a3.253,3.253,0,0,0-.334-4.074Z"
        transform="translate(907.684 -62.227)" />
      <path class="c"
        d="M307.908,502.395a8.7,8.7,0,0,1-3.2,1.212c-4.169.124-7.632-11.162-7.632-11.162s1.183-1.2,3.072-2.862c5.59-4.97,17.315-14.148,22.81-9.015C329.163,486.3,315.13,498.512,307.908,502.395Z"
        transform="translate(900.111 -67.71)" />
      <path class="c"
        d="M240.689,784.511,225.3,801.12s-14.234.162-11.448-7.689a28.707,28.707,0,0,0,1.183-5.228,128.447,128.447,0,0,0,1-16.809c0-3.682-.057-6.268-.057-6.268s22.409-9.816,20.12.41a19.224,19.224,0,0,0-.458,3.892,24.365,24.365,0,0,0,2.557,10.923A24.718,24.718,0,0,0,240.689,784.511Z"
        transform="translate(903.957 -80.674)" />
      <path class="b"
        d="M240.689,785.449,225.3,802.059s-14.234.162-11.448-7.689a28.71,28.71,0,0,0,1.183-5.228c2.032,1.574,4.951,6.211,4.951,6.211s9.817,2.862,12.516-5.724c1.507-4.77,3.892-7.184,5.724-8.338a24.726,24.726,0,0,0,2.461,4.159Z"
        transform="translate(903.957 -81.613)" />
      <path class="d"
        d="M276.242,810.452a27.99,27.99,0,0,1-18.736,6.678c-12.688-.181-36.4-.553-41.9-.782-7.365-.324-4.923-6.611-4.684-10.942v-.429c.086-4.341.954-13.747,2.423-15.216s6.5,6.544,6.5,6.544,9.817,2.862,12.516-5.724,8.185-9.416,8.185-9.416c2.49-1.078,2.614,5.4,2.614,5.4l20.778,10.713,12.192,1.908c.391.181.744.363,1.078.544C282.72,802.82,280.278,806.96,276.242,810.452Z"
        transform="translate(904.101 -81.602)" />
      <ellipse class="e" cx="0.897" cy="0.897" rx="0.897" ry="0.897" transform="translate(1141.058 710.543)" />
      <ellipse class="e" cx="0.897" cy="0.897" rx="0.897" ry="0.897" transform="translate(1149.491 714.722)" />
      <ellipse class="e" cx="0.897" cy="0.897" rx="0.897" ry="0.897" transform="translate(1153.822 716.658)" />
      <ellipse class="e" cx="0.897" cy="0.897" rx="0.897" ry="0.897" transform="translate(1162.819 720.112)" />
      <ellipse class="e" cx="0.897" cy="0.897" rx="0.897" ry="0.897" transform="translate(1158.24 718.642)" />
      <path class="d"
        d="M276.242,811.354a27.99,27.99,0,0,1-18.736,6.678c-12.688-.181-36.4-.553-41.9-.782-7.365-.324-4.923-6.611-4.684-10.942l46.24,2.862s18.937-2.862,20.034-8.51C282.72,803.722,280.278,807.863,276.242,811.354Z"
        transform="translate(904.101 -82.504)" />
      <path class="e"
        d="M276.242,811.354a27.99,27.99,0,0,1-18.736,6.678c-12.688-.181-36.4-.553-41.9-.782-7.365-.324-4.923-6.611-4.684-10.942l46.24,2.862s18.937-2.862,20.034-8.51C282.72,803.722,280.278,807.863,276.242,811.354Z"
        transform="translate(904.101 -82.504)" />
      <path class="b"
        d="M307.908,502.9a8.7,8.7,0,0,1-3.2,1.211c-4.169.124-7.632-11.162-7.632-11.162s1.183-1.2,3.072-2.862C301.516,493.143,305.275,501.376,307.908,502.9Z"
        transform="translate(900.111 -68.217)" />
      <path class="ad"
        d="M280.195,498.8s3.434.248,5.638-1.221,11.658-5.524,11.906-8.223c0,0,5.638,13.738,8.834,14.234,0,0-9.817,7.727-10.551,10.179s-19.881,8.471-19.881,8.471Z"
        transform="translate(901.074 -68.184)" />
      <path class="b"
        d="M280.195,498.8s3.434.248,5.638-1.221,11.658-5.524,11.906-8.223c0,0,5.638,13.738,8.834,14.234,0,0-9.817,7.727-10.551,10.179s-19.881,8.471-19.881,8.471Z"
        transform="translate(901.074 -68.184)" />
      <path class="ae"
        d="M223.311,669s-12,16.037-16.39,17.84-37.1,41.881-37.1,41.881,7.031,12.927,19.958,15.044c0,0,7.031-2.776,9.654-9s23.23-23.793,23.23-23.793Z"
        transform="translate(905.965 -76.447)" />
      <path class="b"
        d="M223.311,669s-12,16.037-16.39,17.84-37.1,41.881-37.1,41.881,7.031,12.927,19.958,15.044c0,0,7.031-2.776,9.654-9s23.23-23.793,23.23-23.793Z"
        transform="translate(905.965 -76.447)" />
      <path class="b"
        d="M236.24,765.535a19.225,19.225,0,0,0-.458,3.892c-6.63,6.02-14.615,4.159-19.6,1.965,0-3.682-.057-6.268-.057-6.268S238.529,755.27,236.24,765.535Z"
        transform="translate(903.835 -80.673)" />
      <path class="ae"
        d="M275.653,541.991l-.238,4.522-2.042,38.017s-1.641,8.51-.954,24.861-9.2,42.262-9.2,42.262-4.77,17.506-6.22,25.519-6.048,10.494-6.048,10.494,1.145,9-2.127,12.106-3.434,8.338-3.434,8.338-5.075,28.143-6.678,30.929-1.479,17.506-1.479,17.506c-10.628,12.593-26.168,1.145-26.168,1.145l.162-39.429s4.417-36.319,7.689-41.394,3.272-18.975,3.272-18.975l-1.46-32.436s-1.164-3.434-.162-5.4-2.8-7.355-2.8-7.355c-9.168-11.133-10.494-36.166-7.813-41.022s10.608-24.537,10.608-24.537l10.942-6.382,19.776.582Z"
        transform="translate(904.175 -70.548)" />
      <path class="b" d="M230.1,744.15s2.585,8.958,4.665,9.941S230.1,744.15,230.1,744.15Z"
        transform="translate(903.192 -79.904)" />
      <path class="b" d="M233.83,712.9s6.678,5.285,9.54,5.276S233.83,712.9,233.83,712.9Z"
        transform="translate(903.021 -78.467)" />
      <path class="c"
        d="M273.608,477.675v10.8l-7.126-3.072-7.107-3.062L243.9,467.124s-12.24-7.947-18.784-15.188c-3.74-4.131-5.619-8.033-2.328-10.093a20.51,20.51,0,0,0,4.284-3.749A70.427,70.427,0,0,0,235.6,425.5c.1-.181.21-.363.305-.544,3.186-5.848,5.295-10.837,5.295-10.837s8.968,2.862,14.73,6.945c.467.324.906.658,1.326,1,3.215,2.633,4.818,5.724,1.851,8.739A22.9,22.9,0,0,0,257,433.324h0a20.687,20.687,0,0,0-1.317,2.061c-.172.324-.343.639-.5.954a22,22,0,0,0-1.965,13.1Z"
        transform="translate(903.607 -64.722)" />
      <path class="af"
        d="M274.75,399.7c.372.649.887,1.2,1.231,1.86a8.94,8.94,0,0,1,.544,4.579,26.046,26.046,0,0,0,.477,7.308c.506,2.156,1.45,4.236,1.526,6.449.1,3.12-1.517,6.01-3.081,8.71a6.268,6.268,0,0,0,4.484-2.089,4.35,4.35,0,0,1-.82,4.035,6.936,6.936,0,0,0,5.724-4.512,15.73,15.73,0,0,0,.735-7.632,52.093,52.093,0,0,1-.553-7.68,28.091,28.091,0,0,0,.219-4.188c-.239-2.776-1.908-5.19-3.587-7.441l-3.32-4.56a2.347,2.347,0,0,0-.954-.868C274.235,392.335,273.872,398.116,274.75,399.7Z"
        transform="translate(901.157 -63.773)" />
      <path class="b"
        d="M259.867,430.8a22.9,22.9,0,0,0-2.108,2.519h0a20.661,20.661,0,0,0-1.316,2.061c-.172.324-.343.639-.5.954a25.758,25.758,0,0,1-19.28-10.418c-.1-.143-.21-.286-.305-.439.1-.181.21-.363.305-.544,3.186-5.848,5.295-10.837,5.295-10.837s8.968,2.862,14.73,6.945c.467.324.906.658,1.326,1C261.193,424.7,262.8,427.752,259.867,430.8Z"
        transform="translate(902.904 -64.721)" />
      <path class="c"
        d="M282.9,408.2a25.76,25.76,0,0,1-21.1,25.339,26.052,26.052,0,0,1-4.668.419h-.954A25.758,25.758,0,1,1,282.886,408.2Z"
        transform="translate(903.134 -63.266)" />
      <path class="b"
        d="M261.454,475.048s12.974,7.317,9.654,1.145L254.175,451.16h0l19.223,24.7s12.268,16.857,5.562,28.467c0,0-.954,9.655.162,11.944s-.324,26.712-.324,26.712-4.589-4.255-7.041-3.444S252,541.8,252,541.8Z"
        transform="translate(902.185 -66.426)" />
      <path class="b"
        d="M277.666,542.015l-.239,4.522c-1.555-1.126-3.721-2.385-5.161-1.908-2.452.82-19.786,2.3-19.786,2.3l.792-5.638Z"
        transform="translate(902.163 -70.573)" />
      <path class="af"
        d="M261.963,475.048s12.984,7.317,9.654,1.145L254.684,451.16h0l19.223,24.7s12.268,16.857,5.562,28.467c0,0-.954,9.655.162,11.944s-.324,26.712-.324,26.712-4.579-4.255-7.031-3.444-19.8,2.3-19.8,2.3Z"
        transform="translate(902.163 -66.426)" />
      <path class="b"
        d="M266.991,487.068C266.237,494.938,263,504.3,263,504.3s-2.29,23.23-5.257,30.137-1.641,16.361-3.272,33.867c-.591,6.306-2.623,10.637-5.361,13.556-4.5,4.77-10.933,5.81-16.008,5.514l-1.2-.1c-8.185-.811-16.037-40.24-16.037-40.24s-3.759-33.543-2.29-38.16-1.45-30.728-2.433-36.452c-.63-3.635,1.25-9.54,2.7-13.413.849-2.232,1.545-3.816,1.545-3.816s2.786-8.834,7.365-13.413a6.754,6.754,0,0,1,4.856-2.042,12.146,12.146,0,0,1,6.058,1.908,1.706,1.706,0,0,1,.21.143s29.784,30.433,32.56,37.464C267.21,481.229,267.287,484.034,266.991,487.068Z"
        transform="translate(904.07 -65.901)" />
      <path class="ad"
        d="M265.971,486.559c-.763,7.861-4,17.22-4,17.22s-2.29,23.239-5.237,30.108-1.631,16.361-3.272,33.867c-.591,6.3-2.623,10.628-5.361,13.556-4.5,4.77-10.933,5.8-16.008,5.514l-1.2-.1c-8.185-.82-16.037-40.249-16.037-40.249s-3.759-33.533-2.29-38.112-1.469-30.757-2.452-36.49c-.63-3.625,1.25-9.54,2.7-13.413.849-2.232,1.545-3.768,1.545-3.768s2.786-8.834,7.365-13.413a6.677,6.677,0,0,1,4.856-2.032,11.944,11.944,0,0,1,6.058,1.908l.21.133s29.784,30.433,32.56,37.464A17.618,17.618,0,0,1,265.971,486.559Z"
        transform="translate(904.117 -65.878)" />
      <path class="b" d="M233.247,614.38s-6.754,6.01-9.082,5.724S233.247,614.38,233.247,614.38Z"
        transform="translate(903.48 -73.935)" />
      <path class="b" d="M235.118,620.425s-7.117,3.3-9.244,3.816S232.371,619.576,235.118,620.425Z"
        transform="translate(903.402 -74.209)" />
      <path class="b" d="M264.44,525.753s10.551.124,12.144,3.434S267.836,524.4,264.44,525.753Z"
        transform="translate(901.613 -69.851)" />
      <path class="b" d="M262.89,531.8s8.1,1.717,10.551,3.682S262.89,531.8,262.89,531.8Z"
        transform="translate(901.684 -70.136)" />
      <path class="b" d="M248.353,510.84s-.954,33.247-4.6,37.549S248.353,510.84,248.353,510.84Z"
        transform="translate(902.607 -69.172)" />
      <path class="b"
        d="M281.887,405.356a9.93,9.93,0,0,1-.954-1.784c-1.8-3.759-6.44-1.908-9.836-.124l-1.813,2.337a14.545,14.545,0,0,0-2.07,3.2,24.194,24.194,0,0,0-.868,2.862c-.467,1.66-1.154,3.244-1.774,4.865a56.557,56.557,0,0,0-3.616,16.828,26.056,26.056,0,0,1-4.675.42h-.114v-.114c.172-.649.315-1.307.448-1.965h0a34.038,34.038,0,0,0,.258-11.257v-.248c-.124-.83-.286-1.669-.353-2.5-.315.572-.62,1.154-.954,1.746-2.051,3.816-4.207,7.632-8.08,9.3a16.574,16.574,0,0,1-4.913,1.107,28.036,28.036,0,0,0-6.144,1.021,3.817,3.817,0,0,0-1.784,1.078,5.266,5.266,0,0,0-.9,2.69,21.685,21.685,0,0,1-.954,3.73,32.7,32.7,0,0,1-8.014,11.944l-.887.859a16.609,16.609,0,0,1-5.3,3.673,16.218,16.218,0,0,1-5.619.839c.849-2.232,1.545-3.768,1.545-3.768s2.786-8.834,7.365-13.413a6.678,6.678,0,0,1,4.856-2.032,72.055,72.055,0,0,0,8.834-13.137,25.758,25.758,0,1,1,46.336-18.126Z"
        transform="translate(903.98 -63.266)" />
      <path class="af"
        d="M282.991,384.411a17.578,17.578,0,0,0-5.724-3.673,4.36,4.36,0,0,1-1.86-1.355,5.668,5.668,0,0,1-.572-2.337c-.715-4.98-5.352-8.424-9.96-10.446-5.934-2.6-13.06-3.721-18.756-.63-2.767,1.507-4.951,3.864-7.451,5.781-3.167,2.423-6.812,4.121-10.189,6.239s-6.6,4.77-8.2,8.452c-2.48,5.629-.62,12.087-.305,18.231.487,9.693-3.453,19.815-11.276,25.548a9.846,9.846,0,0,0-2.48,2.166,2.719,2.719,0,0,0-.2,3.081c.391.534,1.04.84,1.469,1.336.9,1.021.716,2.576.363,3.892a24.346,24.346,0,0,1-6.544,11.19c.134,1.011,1.355,1.4,2.356,1.555a53.515,53.515,0,0,0,8,.582,13.451,13.451,0,0,0,11.19-4.512c4.77-4.484,8.805-10.084,9.883-16.533a5.447,5.447,0,0,1,.9-2.69,4.036,4.036,0,0,1,1.784-1.078c3.559-1.221,7.632-.62,11.057-2.127,4.465-1.908,6.678-6.678,9.015-11.047.076.83.229,1.669.363,2.509a33.923,33.923,0,0,1-.668,13.47c-.639,2.49-1.565,4.97-1.5,7.537.048,1.908,1.984,11.877,4.531,8.891s1.612-9.588,1.612-13.289a56.812,56.812,0,0,1,3.749-20.272c.611-1.612,1.307-3.205,1.774-4.865a26.079,26.079,0,0,1,.859-2.862,14.954,14.954,0,0,1,2.08-3.2l1.822-2.337c3.4-1.8,8.033-3.635,9.836.124.687,1.441,1.059,3.034,2.862,1.631,1.059-.83,1.4-2.461,1.679-3.7C285.624,394.475,286.559,388.36,282.991,384.411Z"
        transform="translate(904.517 -62.421)" />
      <path class="b"
        d="M249.115,479.06c-.7-17.62-25.357-21.265-31.11-4.6a2.421,2.421,0,0,0-.114.343c-3.768,11.286-2.127,39.868-2.127,39.868s.487,19.195,2.29,25.577,6.869,24.7,6.869,27.666,4.7,14.234,6.678,15.054,2.976,7.193,3.463,8.338,1.908,16.037,1.908,16.037,18.489-1.145,18.813-4.093-4.093-17.344-4.093-17.344-3.253-5.886-3.673-10.628-2.976-6.9-2.471-10.17-1.479-4.9-1.479-7.031-1.469-7.851-1.469-7.851-3.11-2.461-2.614-5.4-4.417-8.834-3.11-10.961,1.631-7.365,1.631-7.365,1.641-23.554,2.786-29.937,7.851-16.685,7.851-16.685S249.134,479.585,249.115,479.06Z"
        transform="translate(903.868 -67.004)" />
      <path class="b"
        d="M248.257,582.411c-4.5,4.77-10.933,5.8-16.008,5.514-.591-2.232-1.45-4.98-2.7-5.5-1.984-.82-6.678-12.106-6.678-15.045S217.806,546.112,216,539.72s-2.29-25.567-2.29-25.567-1.641-28.62,2.127-39.877a.993.993,0,0,1,.114-.334c5.724-16.676,30.413-13.022,31.11,4.6v.811s-6.678,10.3-7.851,16.685-2.767,29.936-2.767,29.936-.334,5.238-1.641,7.365,3.6,8.023,3.11,10.961,2.614,5.4,2.614,5.4S242,555.423,242,557.56s1.965,3.759,1.479,7.031,2.127,5.4,2.547,10.141a26.447,26.447,0,0,0,2.232,7.68Z"
        transform="translate(903.962 -66.98)" />
      <path class="ad"
        d="M248.085,478.55c-.7-17.62-25.357-21.265-31.11-4.6l-.114.334c-3.768,11.3-2.127,39.877-2.127,39.877s.487,19.185,2.29,25.567,6.869,24.709,6.869,27.666,4.7,14.234,6.678,15.054,2.976,7.2,3.463,8.347,1.908,16.027,1.908,16.027,18.488-1.145,18.813-4.083S250.67,585.4,250.67,585.4s-3.263-5.9-3.682-10.637-3.034-6.869-2.538-10.141-1.479-4.913-1.479-7.041-1.469-7.851-1.469-7.851-3.11-2.452-2.614-5.4-4.417-8.834-3.11-10.961,1.631-7.355,1.631-7.355,1.641-23.564,2.786-29.946,7.851-16.685,7.851-16.685A4.156,4.156,0,0,0,248.085,478.55Z"
        transform="translate(903.916 -66.981)" />
      <path class="b" d="M217.88,526.409c.487-.5,9.817-10.8,12.755-7.117S217.88,526.409,217.88,526.409Z"
        transform="translate(903.754 -69.524)" />
      <path class="b" d="M218.78,534.81c.362-.372,9.321-.734,11.534-5.724S218.78,534.81,218.78,534.81Z"
        transform="translate(903.713 -69.95)" />
      <g class="ab" transform="translate(1106.094 328.457)">
        <path
          d="M207.99,440.121a2.528,2.528,0,0,1,.487.887,3.816,3.816,0,0,0-.487-3.339c-.439-.506-1.078-.8-1.479-1.336,0,0-.048-.086-.076-.134a2.528,2.528,0,0,0,.076,2.585C206.959,439.32,207.551,439.625,207.99,440.121Z"
          transform="translate(-201.798 -394.195)" />
        <path
          d="M221.123,406.378v-2.786c-.172-3.339-.792-6.764-.954-10.112-.2,4.1.716,8.4.954,12.564C221.123,406.139,221.113,406.244,221.123,406.378Z"
          transform="translate(-202.443 -392.23)" />
        <path
          d="M261.031,449.553c-2.271,2.662-4.055-5-4.446-8.023a12.6,12.6,0,0,0-.086,1.584c.057,1.908,1.984,11.877,4.532,8.891,1.727-2.022,1.908-5.466,1.793-8.643C262.7,445.794,262.319,448.046,261.031,449.553Z"
          transform="translate(-204.116 -394.441)" />
        <path
          d="M256.14,420.93a32.818,32.818,0,0,1,.353,3.873,33.526,33.526,0,0,0-.353-6.335c-.124-.83-.286-1.67-.363-2.509-2.356,4.407-4.541,9.12-9.006,11.057-3.463,1.5-7.5.906-11.057,2.127a3.816,3.816,0,0,0-1.784,1.078,5.323,5.323,0,0,0-.9,2.69c-1.088,6.449-5.132,12.049-9.893,16.533a13.451,13.451,0,0,1-11.19,4.512,54.684,54.684,0,0,1-7.994-.582,6.046,6.046,0,0,1-1.2-.315c-.372.42-.763.82-1.164,1.212.134,1.011,1.364,1.4,2.366,1.555a53.416,53.416,0,0,0,7.994.582,13.451,13.451,0,0,0,11.19-4.512c4.77-4.484,8.805-10.084,9.893-16.533a5.352,5.352,0,0,1,.9-2.69,3.931,3.931,0,0,1,1.784-1.078c3.558-1.221,7.632-.62,11.057-2.127,4.465-1.908,6.678-6.678,9.006-11.047C255.853,419.251,256.016,420.091,256.14,420.93Z"
          transform="translate(-201.59 -393.264)" />
        <path
          d="M287.6,398.514c-.277,1.24-.63,2.862-1.689,3.7-1.794,1.393-2.156-.191-2.862-1.631-1.8-3.759-6.439-1.908-9.836-.124l-1.822,2.337a14.55,14.55,0,0,0-2.07,3.2,22.5,22.5,0,0,0-.859,2.862c-.477,1.66-1.164,3.244-1.784,4.856a57.1,57.1,0,0,0-3.74,20.272v1.011a56.956,56.956,0,0,1,3.73-18.822c.62-1.612,1.307-3.205,1.784-4.865a22.481,22.481,0,0,1,.859-2.862,14.55,14.55,0,0,1,2.07-3.2l1.822-2.337c3.4-1.8,8.033-3.635,9.836.124.7,1.441,1.059,3.034,2.862,1.631,1.059-.83,1.412-2.461,1.689-3.7a32.347,32.347,0,0,0,.954-8.8A42.061,42.061,0,0,1,287.6,398.514Z"
          transform="translate(-204.412 -392.17)" />
      </g>
      <path class="af"
        d="M312.161,494.427l.506.343a2.022,2.022,0,0,1-.525-2.862l22.743-32.951a2.013,2.013,0,0,1,2.814-.515l-.506-.353a3.253,3.253,0,0,1,.83,4.522l-21.341,30.976A3.263,3.263,0,0,1,312.161,494.427Z"
        transform="translate(899.436 -66.745)" />
      <path class="ag" d="M1.66,0h.467V44.132H1.66A1.66,1.66,0,0,1,0,42.472V1.669A1.66,1.66,0,0,1,1.66.01Z"
        transform="translate(1235.505 390.527) rotate(34.56)" />
      <rect class="af" width="0.41" height="3.597" rx="0.17" transform="translate(1233.855 396.294) rotate(34.56)" />
      <path class="v"
        d="M831.325,335.095A12.123,12.123,0,1,1,819.2,323a12.123,12.123,0,0,1,12.123,12.095ZM817.8,341.51l9-8.992a.786.786,0,0,0,0-1.1l-1.109-1.109a.772.772,0,0,0-1.1,0l-7.335,7.335-3.425-3.412a.793.793,0,0,0-1.109,0l-1.1,1.109a.772.772,0,0,0,0,1.1l5.082,5.082a.772.772,0,0,0,1.1,0Z"
        transform="translate(779.717 120.856)" />
      <path class="v"
        d="M622.115,524.623A12.123,12.123,0,1,1,609.993,512.5,12.123,12.123,0,0,1,622.115,524.623Zm-13.527,6.416,9.027-8.992a.779.779,0,0,0,0-1.109l-1.137-1.067a.779.779,0,0,0-1.109,0l-7.335,7.3-3.426-3.426a.772.772,0,0,0-1.1,0l-1.109,1.1a.793.793,0,0,0,0,1.109l5.082,5.082a.779.779,0,0,0,1.109,0Z"
        transform="translate(842.072 64.375)" />
      <path class="v"
        d="M622.115,713.283a12.123,12.123,0,1,1-12.123-12.123A12.123,12.123,0,0,1,622.115,713.283ZM608.589,719.7l9.027-8.992a.779.779,0,0,0,0-1.109l-1.1-1.1a.779.779,0,0,0-1.109,0l-7.335,7.335-3.426-3.426a.772.772,0,0,0-1.1,0l-1.109,1.1a.793.793,0,0,0,0,1.109l5.082,5.082a.779.779,0,0,0,1.109,0Z"
        transform="translate(842.072 8.146)" />
    </g>
    <g transform="translate(-557.279 -746.014) rotate(-7)">
      <path class="k" d="M504.338,420.53h-6.113L486.008,527.094l40.3-1.352Z" transform="translate(986 1085.646)" />
      <path class="ah" d="M504.338,420.53h-6.113L486.008,527.094l40.3-1.352Z" transform="translate(986 1085.646)" />
      <path class="k" d="M502.874,419.08l-7.466,107.25,91.455,6.789,7.466-104.536Z"
        transform="translate(985.427 1085.734)" />
      <circle class="ah" cx="1.362" cy="1.362" r="1.362" transform="translate(1517.731 1512.956)" />
      <circle class="ah" cx="1.362" cy="1.362" r="1.362" transform="translate(1546.241 1516.346)" />
      <path class="h"
        d="M833.971,557.64H833.3c0-.291.479-28.923-15.964-31.562-3.24-.516-5.888.216-7.869,2.179-6.789,6.733-3.982,25.749-3.953,25.937l-.667.1c-.122-.8-2.883-19.551,4.151-26.519,2.141-2.132,5-2.93,8.452-2.376C834.46,528.125,833.981,557.349,833.971,557.64Z"
        transform="translate(713.969 960.077)" />
    </g>
    <path class="c" d="M238.5,608.742s-6.735,29.326,6.821,31.158,9.378-33.39,9.378-33.39Z"
      transform="translate(900.281 -81.573)" />
  </g>
</svg>